<svg xmlns="http://www.w3.org/2000/svg" xmlns:xlink="http://www.w3.org/1999/xlink" width="512" zoomAndPan="magnify" viewBox="0 0 384 383.999986" height="512" preserveAspectRatio="xMidYMid meet" version="1.0"><defs><g/><clipPath id="bcc384e946"><path d="M 14.347656 14.347656 L 369.652344 14.347656 L 369.652344 369.652344 L 14.347656 369.652344 Z M 14.347656 14.347656 " clip-rule="nonzero"/></clipPath><clipPath id="77144c9d5a"><path d="M 192 14.347656 C 93.886719 14.347656 14.347656 93.886719 14.347656 192 C 14.347656 290.113281 93.886719 369.652344 192 369.652344 C 290.113281 369.652344 369.652344 290.113281 369.652344 192 C 369.652344 93.886719 290.113281 14.347656 192 14.347656 " clip-rule="nonzero"/></clipPath></defs><g clip-path="url(#bcc384e946)"><g clip-path="url(#77144c9d5a)"><path fill="#ffffff" d="M 14.347656 14.347656 L 369.652344 14.347656 L 369.652344 369.652344 L 14.347656 369.652344 Z M 14.347656 14.347656 " fill-opacity="1" fill-rule="nonzero"/></g></g><g fill="#000000" fill-opacity="1"><g transform="translate(180.19269, 263.348161)"><g><path d="M 38.6875 0 L 93.335938 0 L 157.175781 -116.066406 L 109.136719 -116.066406 L 72.382812 -39.171875 L 72.058594 -39.171875 L 59.644531 -116.066406 L 11.769531 -116.066406 Z M 38.6875 0 "/></g></g></g><g fill="#000000" fill-opacity="1"><g transform="translate(53.722972, 263.348161)"><g><path d="M 0.644531 0 L 43.523438 0 L 54.324219 -68.191406 L 54.648438 -68.191406 L 86.726562 0 L 140.894531 0 L 159.269531 -116.066406 L 116.390625 -116.066406 L 105.589844 -48.363281 L 105.265625 -48.363281 L 73.1875 -116.066406 L 19.023438 -116.066406 Z M 0.644531 0 "/></g></g></g></svg>