<svg xmlns="http://www.w3.org/2000/svg" xmlns:xlink="http://www.w3.org/1999/xlink" width="512"
  zoomAndPan="magnify" viewBox="0 0 384 383.999986" height="512" preserveAspectRatio="xMidYMid meet"
  version="1.0">
  <defs>
    <g />
    <clipPath id="5c841748a6">
      <path d="M 53 68 L 320 68 L 320 335 L 53 335 Z M 53 68 " clip-rule="nonzero" />
    </clipPath>
    <clipPath id="252df25e52">
      <path
        d="M 31.863281 94.8125 L 293.011719 46.96875 L 340.851562 308.117188 L 79.707031 355.957031 Z M 31.863281 94.8125 "
        clip-rule="nonzero" />
    </clipPath>
    <clipPath id="04e24f4ffd">
      <path
        d="M 162.4375 70.890625 C 90.324219 84.101562 42.574219 153.269531 55.785156 225.382812 C 68.996094 297.5 138.167969 345.25 210.28125 332.035156 C 282.394531 318.824219 330.144531 249.65625 316.933594 177.542969 C 303.722656 105.429688 234.550781 57.679688 162.4375 70.890625 "
        clip-rule="nonzero" />
    </clipPath>
  </defs>
  <g clip-path="url(#5c841748a6)">
    <g clip-path="url(#252df25e52)">
      <g clip-path="url(#04e24f4ffd)">
        <path 
          id="circle"
          fill="#000" 
          d="M 31.863281 94.8125 L 293.011719 46.96875 L 340.851562 308.117188 L 79.707031 355.957031 Z M 31.863281 94.8125 "
          fill-opacity="0" fill-rule="nonzero" />
      </g>
    </g>
  </g>
  <g fill="#000000" fill-opacity="1">
    <g transform="translate(152.930231, 260.413412)">
      <g>
        <path
          d="M 125.453125 -0.640625 L 198.140625 -130.296875 L 144 -130.296875 L 100.34375 -35.890625 L 56.703125 -130.296875 L 2.46875 -130.296875 L 75.140625 -0.640625 Z M 126.1875 0.640625 L 74.421875 0.640625 L 0.28125 -131.578125 L 57.53125 -131.578125 L 100.34375 -38.890625 L 143.171875 -131.578125 L 200.328125 -131.578125 Z M 126.1875 0.640625 " />
      </g>
    </g>
  </g>
  <g fill="#000000" fill-opacity="1">
    <g transform="translate(5.814455, 270.801539)">
      <g>
        <path
          d="M 207.5625 -18.25 L 196.59375 -147.53125 L 143.109375 -143 L 150.65625 -54.03125 L 68.421875 -136.65625 L 4.1875 -131.203125 L 15.15625 -1.921875 L 68.640625 -6.46875 L 61.046875 -95.984375 L 143.34375 -12.796875 Z M 208.9375 -17.078125 L 142.796875 -11.46875 L 62.625 -92.546875 L 70.015625 -5.296875 L 13.96875 -0.546875 L 2.796875 -132.390625 L 68.859375 -137.984375 L 149.09375 -57.375 L 141.734375 -144.171875 L 197.765625 -148.921875 Z M 208.9375 -17.078125 " />
      </g>
    </g>
  </g>
  <g fill="#000000" fill-opacity="1">
    <g transform="translate(213.218049, 269.090954)">
      <g />
    </g>
  </g>
  <!-- stroke="#000000"  -->
  <path stroke-linecap="butt" transform="matrix(0.75, 0, 0, 0.75, 159.38248, 97.17372)" fill="none"
    stroke-linejoin="miter"
    d="M 167.010873 227.1486 L 263.917131 54.273587 L 191.724417 54.273587 L 133.531704 180.153805 L 75.338991 54.273587 L 3.021277 54.273587 L 99.927534 227.1486 Z M 167.984831 228.851725 L 98.953576 228.851725 L 0.0994014 52.570461 L 76.432741 52.570461 L 133.531704 176.13818 L 190.625458 52.570461 L 266.839006 52.570461 Z M 167.984831 228.851725 "
    stroke="#000000" stroke-width="8.57089" stroke-opacity="1" stroke-miterlimit="4" />
  <path stroke-linecap="butt"
    transform="matrix(0.747316, -0.0633932, 0.0633932, 0.747316, -2.381026, 108.223659)" fill="none"
    stroke-linejoin="miter"
    d="M 277.818331 227.148116 L 277.815988 54.148606 L 206.231565 54.15007 L 206.235226 173.217103 L 106.28016 54.149661 L 20.33188 54.150569 L 20.329033 227.149638 L 91.913456 227.148174 L 91.9139 107.354932 L 191.864862 227.148584 Z M 279.524294 228.850486 L 191.014574 228.853649 L 93.623134 112.099717 L 93.61942 228.850545 L 18.627102 228.850412 L 18.625917 52.448199 L 107.010203 52.44485 L 204.526687 168.587372 L 204.530791 52.44814 L 279.523109 52.448273 Z M 279.524294 228.850486 "
    stroke="#000000" stroke-width="8.570822" stroke-opacity="1" stroke-miterlimit="4" />
</svg>
